<?xml version="1.0" standalone="no"?>
<!DOCTYPE svg PUBLIC "-//W3C//DTD SVG 20010904//EN"
 "http://www.w3.org/TR/2001/REC-SVG-20010904/DTD/svg10.dtd">
<svg version="1.0" xmlns="http://www.w3.org/2000/svg"
 width="640.000000pt" height="640.000000pt" viewBox="0 0 640.000000 640.000000"
 preserveAspectRatio="xMidYMid meet">
<metadata>
Created by potrace 1.11, written by Peter Selinger 2001-2013
</metadata>
<g transform="translate(0.000000,640.000000) scale(0.100000,-0.100000)"
fill="#000000" stroke="none">
<path d="M1349 5446 c-2 -2 -47 -6 -99 -9 -171 -10 -308 -72 -426 -192 -114
-117 -172 -249 -180 -410 -4 -84 -6 -204 -3 -222 1 -4 1 -12 0 -18 -1 -5 -2
-55 -2 -110 1 -55 1 -125 0 -155 0 -30 0 -62 0 -70 1 -8 1 -31 0 -50 0 -19 0
-42 0 -50 0 -8 0 -40 0 -70 0 -30 0 -62 0 -70 1 -8 1 -31 0 -50 0 -19 0 -42 0
-50 0 -8 0 -40 0 -70 0 -30 0 -62 0 -70 1 -8 1 -31 0 -50 0 -19 0 -42 0 -50 0
-8 0 -40 0 -70 0 -30 0 -62 0 -70 1 -8 1 -31 0 -50 0 -19 0 -42 0 -50 0 -8 0
-40 0 -70 0 -30 0 -59 0 -65 1 -20 1 -162 1 -222 0 -34 0 -66 1 -70 1 -4 1
-12 -1 -18 -1 -5 -1 -39 0 -75 0 -36 1 -72 1 -80 -1 -92 -1 -141 0 -147 1 -4
1 -12 -1 -18 -1 -5 -1 -71 0 -145 1 -74 1 -142 1 -150 -1 -25 -1 -100 0 -108
1 -4 1 -9 0 -12 -5 -13 -5 -110 -1 -110 4 0 4 -16 2 -36 l-4 -35 -62 1 c-33 1
-65 1 -71 0 -5 -1 -14 -2 -18 -1 -9 2 -269 3 -277 1 -3 0 -28 -2 -57 -3 -56
-3 -91 -22 -127 -71 -20 -26 -21 -41 -23 -351 -1 -330 -2 -329 39 -470 16 -53
82 -178 121 -229 121 -156 312 -272 497 -303 56 -10 5020 -11 5075 -1 59 10
139 34 176 52 18 9 38 16 45 16 7 0 14 3 16 8 2 4 29 23 61 42 31 19 57 38 57
42 0 4 5 8 10 8 14 0 105 94 149 155 33 45 81 135 102 190 40 107 44 148 44
492 0 309 -1 323 -21 349 -32 43 -69 67 -111 70 -31 3 -115 4 -328 3 -11 0
-54 0 -96 1 l-76 1 -2 55 c0 31 -3 60 -7 65 -3 5 -2 9 3 9 6 0 9 102 2 120 -1
3 -1 9 0 14 1 5 1 90 1 190 -1 99 -1 190 -1 201 2 64 0 108 -4 115 -3 5 -2 11
3 14 4 3 5 29 2 60 -3 30 -3 62 0 72 4 9 3 37 0 61 -4 24 -3 46 2 49 4 3 6 9
3 13 -4 8 -6 68 -5 176 1 33 0 65 -1 70 -1 6 -1 13 0 17 2 14 2 213 1 223 -1
6 -2 14 -1 19 1 5 1 90 1 190 -1 99 -1 190 -1 201 2 64 0 108 -4 115 -3 5 -2
11 3 14 4 3 5 29 2 60 -3 30 -3 62 0 72 4 9 3 37 0 61 -4 24 -3 46 2 49 4 3 6
9 3 13 -5 9 -6 77 -4 179 1 34 0 65 -3 67 -2 2 -1 29 2 60 3 31 4 57 2 60 -2
2 -5 34 -7 72 -6 115 -31 198 -92 302 -48 82 -164 186 -258 232 -47 22 -93 42
-103 44 -9 2 -17 4 -17 5 0 7 -181 21 -252 20 -24 -1 -49 -1 -55 -1 -7 0 -75
1 -151 2 -76 0 -140 -1 -142 -3 -3 -2 -28 -2 -57 2 -29 3 -66 3 -82 0 -16 -3
-61 -3 -100 0 -39 3 -99 3 -134 0 -35 -3 -65 -3 -67 -1 -5 4 -215 4 -220 -1
-2 -2 -28 -1 -57 2 -29 3 -84 3 -123 0 -38 -3 -88 -3 -110 0 -22 3 -61 2 -87
-1 -27 -3 -48 -3 -48 0 0 3 -34 4 -76 1 -41 -3 -77 -3 -79 -1 -3 2 -30 3 -62
3 -32 -1 -116 -1 -188 -1 -179 0 -217 -1 -227 -7 -4 -3 -8 -2 -8 3 0 4 -34 6
-76 3 -41 -3 -77 -3 -79 -2 -3 4 -443 4 -462 1 -4 -1 -11 -1 -15 0 -5 1 -55 2
-113 2 -58 0 -108 -1 -112 -2 -5 -1 -12 -1 -16 0 -13 2 -270 3 -282 1 -5 -2
-14 -2 -18 -1 -4 1 -36 1 -70 1 -34 0 -105 0 -157 1 -129 0 -174 -1 -179 -6
-2 -3 -9 0 -16 5 -7 5 -14 8 -16 6z m50 -326 c14 3 49 3 79 0 29 -4 55 -3 57
0 2 4 24 4 48 0 24 -3 52 -4 61 0 10 3 42 3 72 0 31 -3 57 -3 59 0 2 4 24 4
48 0 24 -3 52 -4 61 0 10 3 42 3 72 0 31 -3 57 -3 59 0 2 4 24 4 48 0 24 -3
52 -4 61 0 10 3 42 3 72 0 31 -3 57 -2 60 2 3 5 9 6 14 3 7 -4 61 -6 110 -4 8
0 76 0 150 -1 74 -1 140 -1 145 0 6 2 14 2 18 1 6 -1 55 -1 147 0 8 0 44 -1
80 -1 36 -1 70 -1 75 0 6 2 14 2 18 1 6 -1 55 -1 147 0 8 0 44 -1 80 -1 36 -1
70 -1 75 0 6 2 14 2 18 1 6 -1 55 -1 147 0 8 0 44 -1 80 -1 36 -1 70 -1 75 0
6 2 14 2 18 1 4 -1 36 -1 70 -1 34 0 105 0 157 -1 130 0 172 1 181 7 4 2 10 0
14 -6 4 -6 10 -8 15 -5 7 4 75 6 150 4 8 0 31 0 50 0 19 1 42 1 50 0 8 0 40 0
70 0 30 0 62 0 70 0 8 0 31 0 50 0 19 1 42 1 50 0 8 0 40 0 70 0 30 0 62 0 70
0 8 0 31 0 50 0 19 1 42 1 50 0 8 0 40 0 70 0 30 0 62 0 70 0 8 0 31 0 50 1
163 7 259 -20 334 -94 63 -63 88 -124 92 -226 2 -47 4 -87 4 -90 1 -6 1 -102
0 -262 -1 -70 1 -132 5 -137 3 -5 2 -12 -3 -15 -4 -2 -5 -28 -2 -58 3 -29 2
-77 -1 -106 -3 -29 -3 -54 -1 -57 2 -2 4 -35 4 -72 -3 -262 -3 -324 3 -332 3
-5 2 -12 -3 -15 -4 -3 -6 -29 -3 -58 3 -29 4 -77 1 -106 -3 -29 -4 -55 -2 -57
3 -2 4 -35 4 -72 -3 -262 -3 -324 3 -332 3 -5 2 -12 -3 -15 -4 -2 -5 -28 -2
-58 3 -29 2 -77 -1 -106 -3 -29 -3 -54 -1 -57 2 -2 4 -35 4 -72 -1 -81 -1
-312 0 -333 0 -8 0 -35 -1 -60 -1 -25 -1 -52 0 -60 0 -8 0 -35 0 -60 0 -25 -1
-53 -1 -62 0 -68 2 -67 -59 -68 -31 0 -85 0 -121 0 -36 0 -85 0 -110 -1 -25 0
-52 -1 -60 0 -8 0 -67 0 -130 0 -63 0 -155 1 -205 1 -106 2 -105 2 -130 0 -11
-1 -76 -1 -145 -1 -69 0 -132 0 -140 0 -38 -1 -320 0 -364 1 -28 1 -53 3 -58
6 -4 3 -8 1 -8 -5 0 -6 -6 -8 -13 -5 -20 7 -55 -32 -67 -76 -19 -72 -54 -120
-135 -188 -29 -25 -123 -50 -186 -51 -35 0 -102 0 -149 -1 -47 0 -105 0 -130
-1 -25 0 -52 -1 -60 0 -8 0 -67 0 -130 0 -63 0 -126 0 -140 0 -44 1 -111 11
-128 20 -9 5 -30 15 -46 22 -65 30 -125 106 -156 198 -23 68 -53 84 -150 80
-8 0 -80 0 -160 0 -80 0 -154 0 -165 0 -11 0 -67 0 -125 0 -58 0 -109 -1 -115
-1 -5 0 -30 1 -55 1 -25 0 -54 1 -65 0 -46 0 -356 1 -400 2 -5 0 -35 0 -65 0
-30 -1 -101 0 -158 0 -57 1 -105 -1 -108 -4 -3 -3 -13 -3 -23 0 -15 4 -19 16
-20 60 0 30 -3 59 -7 64 -3 5 -2 9 3 9 6 0 9 93 3 120 -4 19 1 453 5 460 3 5
2 11 -2 13 -5 3 -6 39 -3 81 3 42 1 76 -3 76 -5 0 -5 4 -2 10 3 5 6 40 5 77 0
38 0 100 0 138 0 39 0 98 0 132 0 34 0 66 -1 70 -1 4 -1 13 0 18 2 8 1 258 -1
290 0 6 1 24 1 40 1 17 2 61 1 98 0 38 2 72 5 77 3 5 1 11 -5 15 -6 4 -8 10
-6 14 6 9 7 51 7 181 -1 52 -1 123 -1 157 0 34 0 66 -1 70 -1 4 -1 13 0 18 2
10 2 62 1 232 -1 57 1 107 5 112 3 5 1 12 -4 16 -6 3 -8 11 -6 18 2 7 6 43 9
81 10 129 93 236 214 277 35 11 71 19 81 16 11 -2 24 -1 31 3 6 4 28 4 48 0
20 -3 48 -4 61 0z m-811 -3360 c59 1 112 2 117 2 6 0 30 -1 55 -1 25 0 54 -1
65 0 24 0 224 0 315 -1 36 0 85 0 110 1 25 0 52 1 60 0 8 0 67 0 130 0 63 0
156 -1 205 -1 106 -2 105 -2 130 0 11 1 76 1 145 1 69 0 134 0 145 0 187 1
204 -1 211 -24 10 -34 71 -122 112 -162 45 -45 132 -97 190 -114 57 -16 119
-21 277 -21 72 0 162 0 200 0 39 0 90 0 115 1 25 0 52 1 60 0 23 0 226 -1 305
0 39 0 75 -1 80 -2 6 -1 13 -1 16 -1 3 1 28 2 55 3 64 2 139 17 172 35 15 8
31 14 35 14 16 0 93 58 135 102 23 23 57 71 75 106 l32 62 75 0 c41 0 84 1 95
1 11 0 67 0 125 0 58 0 110 1 115 1 6 0 30 -1 55 -1 25 0 54 -1 65 0 24 0 224
0 315 -1 36 0 85 0 110 1 25 0 52 1 60 0 8 0 67 0 130 0 63 0 156 -1 205 -1
106 -2 105 -2 130 0 27 2 272 2 310 0 17 -1 57 -2 90 -3 69 -2 62 13 65 -147
3 -232 -13 -325 -72 -421 -73 -117 -202 -203 -338 -224 -25 -4 -49 -7 -55 -6
-42 1 -282 2 -290 0 -5 -1 -14 -1 -18 0 -6 1 -55 1 -147 0 -8 0 -44 1 -80 1
-36 1 -69 1 -75 0 -5 -2 -14 -2 -18 -1 -4 1 -36 1 -70 1 -34 0 -105 0 -157 1
-130 0 -172 -1 -181 -7 -4 -2 -10 0 -14 6 -4 6 -10 8 -15 5 -7 -4 -92 -6 -150
-4 -8 1 -28 0 -45 -1 -16 -1 -91 -1 -165 0 -74 1 -139 0 -145 -1 -5 -1 -14 -1
-18 0 -4 1 -36 1 -70 1 -34 0 -93 0 -132 0 -38 0 -100 0 -138 0 -37 1 -72 -2
-77 -5 -6 -3 -10 -3 -10 2 0 4 -34 6 -76 3 -42 -3 -78 -2 -81 3 -2 4 -9 5 -14
2 -5 -4 -55 -6 -112 -5 -170 1 -222 1 -232 -1 -5 -1 -14 -1 -18 0 -4 1 -36 1
-70 1 -34 0 -105 0 -157 1 -130 0 -172 -1 -181 -7 -4 -2 -10 0 -14 6 -4 6 -10
8 -15 5 -7 -4 -92 -6 -150 -4 -8 1 -28 0 -45 -1 -16 -1 -91 -1 -165 0 -74 1
-139 0 -145 -1 -5 -1 -14 -1 -18 0 -4 1 -36 1 -70 1 -34 0 -93 0 -132 0 -38 0
-100 0 -138 0 -37 1 -72 -2 -77 -5 -6 -3 -10 -3 -10 2 0 4 -34 6 -76 3 -42 -3
-78 -2 -81 3 -2 4 -9 5 -14 2 -5 -4 -55 -6 -112 -5 -170 1 -222 1 -232 -1 -5
-1 -14 -1 -18 0 -4 1 -36 1 -70 1 -273 0 -349 3 -408 18 -62 16 -155 72 -209
125 -49 50 -114 162 -126 217 -6 31 -17 140 -16 160 1 8 2 75 2 148 l1 133 64
-2 c36 -1 68 1 71 4 4 4 11 4 15 1 5 -3 57 -5 117 -4z"/>
<path d="M2577 4392 c-31 -13 -675 -663 -685 -691 -7 -19 -6 -34 3 -50 18 -35
657 -672 683 -682 44 -17 61 -9 136 66 79 78 93 105 79 143 -5 13 -116 131
-248 263 l-239 239 239 239 c131 131 242 245 246 254 20 35 4 69 -67 143 -72
75 -107 93 -147 76z"/>
<path d="M3757 4385 c-15 -8 -57 -44 -93 -81 -60 -60 -65 -69 -61 -101 3 -19
7 -36 8 -38 2 -2 112 -112 243 -244 l239 -240 -243 -245 c-134 -135 -245 -253
-247 -263 -6 -38 9 -65 77 -133 70 -70 102 -87 138 -76 27 9 675 660 686 691
6 16 6 34 0 50 -8 22 -530 555 -647 661 -41 38 -58 41 -100 19z"/>
</g>
</svg>
